HIERARCHY
ROOT Hips
{
 OFFSET 0.000000 0.000000 0.000000
 CHANNELS 6 Xposition Yposition Zposition Yrotation Xrotation Zrotation
 JOINT Chest
 {
  OFFSET 0.000000 9.588913 -0.003946
  CHANNELS 3 Yrotation Xrotation Zrotation
  JOINT Chest2
  {
   OFFSET 0.000000 9.541882 0.008053
   CHANNELS 3 Yrotation Xrotation Zrotation
   JOINT Chest3
   {
    OFFSET 0.000000 9.501360 0.000000
    CHANNELS 3 Yrotation Xrotation Zrotation
    JOINT Chest4
    {
     OFFSET 0.000000 9.491660 0.000000
     CHANNELS 3 Yrotation Xrotation Zrotation
     JOINT Neck
     {
      OFFSET 0.000000 14.331917 0.000000
      CHANNELS 3 Yrotation Xrotation Zrotation
      JOINT Head
      {
       OFFSET 0.000000 8.884799 0.017034
       CHANNELS 3 Yrotation Xrotation Zrotation
       End Site
       {
        OFFSET 0.000000 16.896195 0.008993
       }
      }
     }
     JOINT RightCollar
     {
      OFFSET -2.923010 9.499495 0.000000
      CHANNELS 3 Yrotation Xrotation Zrotation
      JOINT RightShoulder
      {
       OFFSET -13.795216 0.000000 0.000000
       CHANNELS 3 Yrotation Xrotation Zrotation
       JOINT RightElbow
       {
        OFFSET -30.272209 0.000000 0.000000
        CHANNELS 3 Yrotation Xrotation Zrotation
        JOINT RightWrist
        {
         OFFSET -24.478199 0.000000 0.000000
         CHANNELS 3 Yrotation Xrotation Zrotation
         End Site
         {
          OFFSET -18.090752 0.000000 0.000000
         }
        }
       }
      }
     }
     JOINT LeftCollar
     {
      OFFSET 2.923010 9.499495 0.000000
      CHANNELS 3 Yrotation Xrotation Zrotation
      JOINT LeftShoulder
      {
       OFFSET 13.795216 0.000000 0.000000
       CHANNELS 3 Yrotation Xrotation Zrotation
       JOINT LeftElbow
       {
        OFFSET 30.272209 0.000000 0.000000
        CHANNELS 3 Yrotation Xrotation Zrotation
        JOINT LeftWrist
        {
         OFFSET 24.478199 0.000000 0.000000
         CHANNELS 3 Yrotation Xrotation Zrotation
         End Site
         {
          OFFSET 18.090752 0.000000 0.000000
         }
        }
       }
      }
     }
    }
   }
  }
 }
 JOINT RightHip
 {
  OFFSET -7.826875 0.019532 0.001973
  CHANNELS 3 Yrotation Xrotation Zrotation
  JOINT RightKnee
  {
   OFFSET 0.000000 -40.546152 -0.001885
   CHANNELS 3 Yrotation Xrotation Zrotation
   JOINT RightAnkle
   {
    OFFSET 0.000000 -39.417092 -0.003189
    CHANNELS 3 Yrotation Xrotation Zrotation
    JOINT RightToe
    {
     OFFSET 0.000000 -7.579396 17.243563
     CHANNELS 3 Yrotation Xrotation Zrotation
     End Site
     {
      OFFSET 0.000000 -1.500329 6.694466
     }
    }
   }
  }
 }
 JOINT LeftHip
 {
  OFFSET 7.826875 0.019532 0.001973
  CHANNELS 3 Yrotation Xrotation Zrotation
  JOINT LeftKnee
  {
   OFFSET 0.000000 -40.546152 -0.001885
   CHANNELS 3 Yrotation Xrotation Zrotation
   JOINT LeftAnkle
   {
    OFFSET 0.000000 -39.417092 -0.003189
    CHANNELS 3 Yrotation Xrotation Zrotation
    JOINT LeftToe
    {
     OFFSET 0.000000 -7.579396 17.243563
     CHANNELS 3 Yrotation Xrotation Zrotation
     End Site
     {
      OFFSET 0.000000 -1.500329 6.694466
     }
    }
   }
  }
 }
}
MOTION
Frames: 14
Frame Time: 0.008333
-45.436104 85.586837 36.752173 -45.900912 -12.870563 -1.077100 6.928260 4.964122 4.142823 3.117271 2.078804 1.111468 3.903485 2.588786 1.407121 3.117272 2.078806 1.111469 -3.562655 19.756572 0.129554 -3.833353 -4.743257 0.952656 -14.594418 2.898233 -1.235146 3.283578 -0.034988 89.056285 -1.688111 -1.917662 -0.466485 0.549602 -6.063055 -1.413468 -19.032367 0.127411 -0.674048 1.409453 3.445623 -87.423029 0.187228 5.419673 -4.043482 0.718945 -4.407322 5.472374 12.330546 -7.216026 -2.184438 -0.913101 17.551109 1.147654 -6.495396 -3.410143 5.287766 -0.205426 -0.540148 -1.354177 9.489837 23.656285 12.669346 6.164431 24.836813 7.317045 4.515242 -12.733579 -3.076892 1.421124 -17.643153 -16.336381
-46.073580 85.704818 36.966207 -45.967426 -13.005741 -1.103675 7.094991 5.068610 4.186927 3.146297 2.067852 1.120135 3.939781 2.574929 1.418022 3.146298 2.067854 1.120137 -3.609707 19.753763 0.149386 -3.888860 -4.743971 0.984709 -14.601079 2.854516 -1.230435 3.235294 -0.143791 89.103149 -1.585577 -1.983709 -0.462437 0.627810 -6.097823 -1.476916 -19.055261 0.140999 -0.600971 1.343805 3.429019 -87.422393 0.054968 5.047135 -4.327338 0.147370 -4.831014 5.898791 12.321538 -6.635207 -1.825334 -0.882341 17.406692 1.102674 -6.485682 -3.594849 5.358196 -0.230095 -0.320405 -1.316497 9.437261 22.864652 12.784663 6.655684 26.897700 7.835481 4.620765 -12.270609 -2.673014 1.601248 -18.601429 -17.488616
-46.661658 85.830098 37.183133 -45.968791 -13.008870 -1.088015 7.183878 5.076211 4.145960 3.179911 2.051282 1.130917 3.981803 2.554016 1.431539 3.179912 2.051283 1.130918 -3.661453 19.739285 0.162678 -3.947792 -4.757759 1.010854 -14.599178 2.806712 -1.234666 3.208795 -0.245781 89.151420 -1.455305 -2.102150 -0.438207 0.713148 -6.130624 -1.531202 -19.069519 0.168172 -0.516945 1.308224 3.382765 -87.434368 -0.159133 4.800712 -4.565854 -0.491279 -5.114993 6.368311 12.315290 -6.155963 -1.580142 -0.880685 17.218208 1.058973 -6.496405 -3.775485 5.432038 -0.247236 -0.121894 -1.270424 9.319084 21.870927 12.862488 7.204539 29.036625 8.387355 4.645501 -11.893197 -2.225614 1.727531 -19.050947 -18.642661
-47.194184 85.960775 37.402546 -45.880755 -12.848115 -1.015193 7.172371 4.962954 3.999679 3.219321 2.028880 1.143625 4.031058 2.525777 1.447439 3.219321 2.028882 1.143626 -3.720228 19.709694 0.167911 -4.012278 -4.788432 1.030002 -14.596123 2.740419 -1.247818 3.204863 -0.335130 89.192564 -1.300941 -2.253987 -0.395077 0.798635 -6.157009 -1.571620 -19.089086 0.197858 -0.423728 1.315945 3.314527 -87.463744 -0.440193 4.708306 -4.744304 -1.164011 -5.297652 6.822100 12.276271 -5.806956 -1.480724 -0.890520 16.988164 1.027587 -6.530478 -3.958730 5.508342 -0.256604 0.065199 -1.217537 9.134690 20.648899 12.877772 7.795351 31.219014 9.002109 4.570453 -11.584605 -1.704708 1.717474 -18.897589 -19.792716
-47.687267 86.099073 37.627693 -45.764849 -12.606475 -0.919526 7.130508 4.801617 3.812176 3.264488 2.002204 1.157643 4.087500 2.492162 1.464965 3.264488 2.002205 1.157645 -3.786746 19.663641 0.163599 -4.082729 -4.837476 1.040727 -14.595963 2.641078 -1.266703 3.222041 -0.402846 89.218450 -1.118849 -2.419924 -0.341945 0.880847 -6.176095 -1.592844 -19.120633 0.219926 -0.325355 1.362837 3.230551 -87.505628 -0.779758 4.748759 -4.877841 -1.841517 -5.403029 7.252750 12.236545 -5.512336 -1.457928 -0.897595 16.702397 1.017492 -6.582736 -4.117267 5.581154 -0.257678 0.224157 -1.163814 8.983392 19.294410 12.895995 8.407153 33.401137 9.687881 4.410084 -11.285248 -1.081412 1.499582 -18.158876 -20.947444
-48.144611 86.244181 37.858642 -45.618195 -12.297084 -0.805258 7.062904 4.602404 3.594399 3.312919 1.972070 1.172483 4.148010 2.454204 1.483497 3.312919 1.972071 1.172485 -3.860158 19.601287 0.148792 -4.158015 -4.904720 1.041817 -14.609948 2.503098 -1.289175 3.272648 -0.446114 89.221870 -0.908736 -2.584874 -0.280577 0.957359 -6.193982 -1.598671 -19.161287 0.228080 -0.230291 1.429264 3.130194 -87.551167 -1.161769 4.877200 -4.992567 -2.496147 -5.447031 7.671219 12.175469 -5.260437 -1.507479 -0.901083 16.363487 1.036452 -6.640199 -4.249869 5.649235 -0.250045 0.354970 -1.113953 8.878723 17.842148 12.927142 9.010407 35.550050 10.424347 4.160250 -11.016748 -0.354611 1.043488 -16.499636 -20.861305
-48.590247 86.398932 38.098966 -45.523400 -12.038081 -0.724005 7.067608 4.473554 3.434479 3.360431 1.937708 1.187425 4.207354 2.410959 1.502103 3.360431 1.937709 1.187426 -3.938439 19.524899 0.124998 -4.236328 -4.987615 1.034421 -14.636973 2.339278 -1.312651 3.358322 -0.468967 89.197026 -0.675656 -2.737752 -0.205797 1.026236 -6.209077 -1.596572 -19.205381 0.221986 -0.143437 1.498766 3.006981 -87.594986 -1.552868 5.059416 -5.103514 -3.110732 -5.455807 8.086471 12.151898 -4.946628 -1.524809 -0.912741 15.961960 1.076709 -6.680584 -4.320867 5.709160 -0.235575 0.429549 -1.071885 8.932150 16.417671 13.046703 9.580160 37.632910 11.193342 3.901737 -10.727794 0.479270 0.486981 -13.874557 -18.508872
-49.012035 86.559195 38.345473 -45.408253 -11.758375 -0.635679 7.072397 4.349533 3.272293 3.402668 1.898821 1.201881 4.260080 2.362078 1.520022 3.402668 1.898821 1.201882 -4.017828 19.438423 0.093151 -4.313866 -5.081818 1.018674 -14.660047 2.166979 -1.337190 3.464437 -0.480457 89.137345 -0.420226 -2.862666 -0.114877 1.087336 -6.214780 -1.595669 -19.245581 0.203600 -0.066651 1.561196 2.859024 -87.634496 -1.926848 5.276249 -5.215307 -3.678873 -5.459493 8.494849 12.094122 -4.638611 -1.576462 -0.941527 15.523585 1.122933 -6.702016 -4.359230 5.777868 -0.215609 0.468801 -1.040429 9.013045 14.982111 13.145506 10.123327 39.619716 11.990189 3.638641 -10.499505 1.380239 0.119351 -10.972727 -15.373447
-49.416817 86.724649 38.598023 -45.296518 -11.485693 -0.545258 7.096292 4.250305 3.124219 3.440062 1.856589 1.215221 4.306729 2.309040 1.536480 3.440061 1.856588 1.215221 -4.097815 19.344994 0.054468 -4.390406 -5.183751 0.995764 -14.672762 1.995217 -1.362240 3.580533 -0.490055 89.036714 -0.147783 -2.950180 -0.007409 1.140391 -6.214960 -1.603267 -19.279205 0.172081 -0.002055 1.602143 2.689516 -87.666964 -2.269461 5.504225 -5.329268 -4.190973 -5.473299 8.887952 12.031275 -4.315766 -1.638497 -0.997948 15.055825 1.162501 -6.703997 -4.357953 5.861935 -0.191705 0.469015 -1.019268 9.106752 13.577573 13.199724 10.672581 41.487198 12.822340 3.442366 -10.339336 2.223289 -0.115805 -8.364119 -12.672234
-49.805313 86.893551 38.851827 -45.179888 -11.202525 -0.459649 7.118696 4.148082 2.991586 3.476661 1.813983 1.227777 4.352377 2.255543 1.551944 3.476661 1.813982 1.227778 -4.178907 19.246218 0.011329 -4.467083 -5.291509 0.968358 -14.672797 1.825754 -1.385303 3.695497 -0.501779 88.892168 0.133873 -2.999897 0.115824 1.192690 -6.217084 -1.625967 -19.307633 0.121500 0.046494 1.604489 2.505463 -87.689143 -2.576961 5.709742 -5.442909 -4.628355 -5.485401 9.253164 11.969900 -4.002958 -1.704399 -1.093588 14.567882 1.188448 -6.689003 -4.311887 5.959456 -0.163334 0.429911 -1.002266 9.212890 12.198364 13.198342 11.246561 43.209353 13.718553 3.337686 -10.319390 2.784091 -0.281657 -6.039876 -10.229965
-50.177252 87.064308 39.103094 -45.042160 -10.893547 -0.380760 7.114111 4.013338 2.867157 3.515142 1.773606 1.240386 4.400384 2.204823 1.567495 3.515142 1.773606 1.240386 -4.260320 19.146639 -0.033991 -4.543652 -5.399963 0.938708 -14.659589 1.660982 -1.404446 3.808140 -0.514502 88.703328 0.417755 -3.001399 0.254562 1.253322 -6.220538 -1.683536 -19.331225 0.052478 0.076599 1.557049 2.314849 -87.703297 -2.854670 5.867452 -5.548875 -4.966907 -5.474394 9.561093 11.908107 -3.716969 -1.770377 -1.239158 14.061649 1.191942 -6.667200 -4.216980 6.060281 -0.128034 0.353126 -0.978236 9.359249 10.837823 13.139926 11.811375 44.748816 14.688864 3.300787 -10.492820 2.941814 -0.382060 -4.012619 -7.982880
-50.536439 87.236494 39.352588 -44.890955 -10.582780 -0.305995 7.087996 3.854771 2.750400 3.556117 1.738028 1.253400 4.451527 2.160085 1.583603 3.556117 1.738028 1.253400 -4.341243 19.051578 -0.078174 -4.620087 -5.503134 0.910176 -14.638086 1.502096 -1.415925 3.929121 -0.525359 88.473001 0.696381 -2.937648 0.398591 1.329570 -6.207844 -1.796404 -19.354036 -0.028309 0.090557 1.465238 2.125575 -87.714145 -3.113032 5.973482 -5.641899 -5.188270 -5.421075 9.787388 11.836388 -3.434273 -1.834095 -1.415226 13.541808 1.183260 -6.634533 -4.090463 6.151818 -0.087842 0.251585 -0.942458 9.557346 9.521189 13.025338 12.317225 46.095474 15.678767 3.332238 -10.852815 2.761079 -0.437178 -2.322755 -5.984433
-50.884387 87.409121 39.600843 -44.731505 -10.284395 -0.226516 7.041212 3.676209 2.634059 3.599631 1.710428 1.266785 4.505875 2.125303 1.600259 3.599631 1.710429 1.266786 -4.418539 18.964195 -0.119333 -4.693456 -5.597643 0.884049 -14.605589 1.344134 -1.415826 4.062638 -0.534933 88.206704 0.956817 -2.786949 0.525183 1.433730 -6.177729 -1.962833 -19.376870 -0.116925 0.094021 1.344686 1.946774 -87.724737 -3.363635 6.038353 -5.722185 -5.307181 -5.333816 9.938741 11.733963 -3.145702 -1.910063 -1.601107 13.020740 1.180245 -6.574033 -3.937262 6.231758 -0.046669 0.123949 -0.901086 9.770785 8.258688 12.844323 12.751256 47.288171 16.626667 3.414114 -11.366449 2.384106 -0.461356 -0.998778 -4.301529
-51.230898 87.582397 39.851643 -44.617430 -10.061786 -0.147524 7.022070 3.533012 2.542657 3.645584 1.693042 1.279849 4.563310 2.103278 1.616621 3.645584 1.693043 1.279849 -4.489457 18.887007 -0.159307 -4.760356 -5.680891 0.857722 -14.555835 1.183447 -1.402984 4.211855 -0.546881 87.911255 1.182033 -2.561561 0.614884 1.573131 -6.152878 -2.149199 -19.393772 -0.209356 0.091595 1.210552 1.781933 -87.735438 -3.611142 6.076232 -5.796685 -5.357954 -5.240804 10.045526 11.640331 -2.801523 -1.966623 -1.806342 12.521591 1.177018 -6.470222 -3.781694 6.309217 -0.009793 -0.015872 -0.863707 10.021501 7.110473 12.629025 13.118661 48.348179 17.484483 3.513242 -11.984124 1.960167 -0.473135 -0.012528 -2.969501
